# xmcd CD database file
#
# Track frame offsets:
#	150
#	34384
#	69988
#	93108
#	98266
#	129023
#	158305
#	181006
#	202913
#	226848
#
# Disc length: 3098 seconds
#
# Revision: 0
# Processed by: cddbd v1.5.1PL0 Copyright (c) Steve Scherf et al.
# Submitted via: CDex 1.51
#
DISCID=5e0c180a
DTITLE=Nils Petter Molvaer - Solid Ether
DYEAR=1998
DGENRE=Jazz
TTITLE0=Dead Indeed
TTITLE1=Vilderness 1
TTITLE2=Kakonita
TTITLE3=Merciful 1
TTITLE4=Ligotage
TTITLE5=Trip
TTITLE6=Vilderness 2
TTITLE7=Tragamar
TTITLE8=Solid Ether
TTITLE9=Merciful 2
EXTD=YEAR: 1998
EXTT0=
EXTT1=
EXTT2=
EXTT3=
EXTT4=
EXTT5=
EXTT6=
EXTT7=
EXTT8=
EXTT9=
PLAYORDER=
